<svg xmlns="http://www.w3.org/2000/svg" xmlns:xlink="http://www.w3.org/1999/xlink" width="100%" height="100%" version="1.1" viewBox="0 0 300 300" xml:space="preserve" style="fill-rule:evenodd;clip-rule:evenodd;stroke-linejoin:round;stroke-miterlimit:2"><g id="_2a25bcbe-bc46-473e-b896-26ad92a6b871"><g><path d="M294.178,74.161C294.178,33.23 261.277,0 220.752,0L73.899,0C33.373,0 0.472,33.23 0.472,74.161L0.472,222.483C0.472,263.413 33.373,296.643 73.899,296.643L220.752,296.643C261.277,296.643 294.178,263.413 294.178,222.483L294.178,74.161Z" transform="matrix(1.14653,0,0,1.14653,40,131.674) matrix(0.890887,0,0,0.882066,-35.3084,-114.846)" style="fill:#233bff"/></g><g><g><path d="M6.439,26.41L15.398,26.41L10.918,18.669L6.439,26.41Z" transform="matrix(1.14653,0,0,1.14653,40,131.674) matrix(8.17688,0,0,8.17688,-54.2628,-326.103) matrix(1,0,0,1,2.39834,25.0627)" style="fill:#fff;fill-rule:nonzero"/></g><g transform="matrix(1.14653,0,0,1.14653,40,131.674) matrix(8.17688,0,0,8.17688,-54.2628,-326.103) matrix(1.12417,0,0,1.0292,-59.7362,-109.9)"><ellipse cx="65.064" cy="144.9" rx="3.093" ry="3.437" style="fill:#fff"/></g></g><g><g><path d="M6.439,26.41L15.398,26.41L10.918,18.669L6.439,26.41Z" transform="matrix(1.14653,0,0,1.14653,40,131.674) matrix(8.17688,0,0,8.17688,28.3598,-354.317) matrix(1,0,0,1,2.39834,25.0627)" style="fill:#fff;fill-rule:nonzero"/></g><g transform="matrix(1.14653,0,0,1.14653,40,131.674) matrix(8.17688,0,0,8.17688,28.3598,-354.317) matrix(1.12417,0,0,1.0292,-59.7362,-109.9)"><ellipse cx="65.064" cy="144.9" rx="3.093" ry="3.437" style="fill:#fff"/></g></g></g><rect width="300" height="300" x="0" y="0" style="fill:none"/></svg>